<svg width="210" height="31" viewBox="0 0 210 31" fill="none" xmlns="http://www.w3.org/2000/svg">
<path d="M37.8906 30.5811V0.837837H51.165C52.5905 0.837837 53.8971 1.11712 55.085 1.67567C56.2728 2.23423 57.3122 2.97432 58.2031 3.89595C59.094 4.81757 59.7771 5.8509 60.2522 6.99595C60.7273 8.14099 60.9649 9.31396 60.9649 10.5149C60.9649 12.1626 60.564 13.7405 59.7622 15.2486C58.9901 16.7288 57.8765 17.9297 56.4213 18.8514C54.9959 19.773 53.3329 20.2338 51.4323 20.2338H42.8797V30.5811H37.8906ZM42.8797 16.0865H51.1205C52.0708 16.0865 52.9023 15.8491 53.615 15.3743C54.3277 14.8716 54.8771 14.2014 55.2632 13.3635C55.6789 12.5257 55.8868 11.5761 55.8868 10.5149C55.8868 9.42568 55.6492 8.46216 55.1741 7.62432C54.6989 6.78649 54.0753 6.14414 53.3032 5.6973C52.5608 5.22252 51.7441 4.98514 50.8532 4.98514H42.8797V16.0865Z" fill="white"/>
<path d="M65.0651 0H69.9651V24.2554C69.9651 25.3725 70.1433 26.0847 70.4996 26.3919C70.856 26.6991 71.3014 26.8527 71.836 26.8527C72.4299 26.8527 72.9793 26.7968 73.4841 26.6851C74.0187 26.5734 74.479 26.4338 74.865 26.2662L75.5778 29.9108C74.865 30.1901 74.0187 30.4275 73.0387 30.623C72.0587 30.8185 71.1827 30.9162 70.4105 30.9162C68.7475 30.9162 67.4409 30.4833 66.4906 29.6176C65.5403 28.7239 65.0651 27.495 65.0651 25.9311V0Z" fill="white"/>
<path d="M76.7262 24.1716C76.7262 22.7752 77.1419 21.5604 77.9734 20.527C78.8346 19.4658 80.0077 18.6559 81.4925 18.0973C82.9773 17.5108 84.6997 17.2176 86.6597 17.2176C87.6991 17.2176 88.7533 17.2874 89.8224 17.427C90.9212 17.5667 91.8863 17.7901 92.7178 18.0973V16.7149C92.7178 15.1788 92.2278 13.9779 91.2478 13.1122C90.2678 12.2464 88.8573 11.8135 87.0161 11.8135C85.7094 11.8135 84.477 12.0369 83.3188 12.4838C82.1607 12.9027 80.9283 13.5032 79.6216 14.2851L77.9734 11.1851C79.5177 10.2077 81.0619 9.48153 82.6061 9.00676C84.18 8.53198 85.8282 8.29459 87.5506 8.29459C90.6688 8.29459 93.1187 9.07658 94.9005 10.6405C96.712 12.1766 97.6178 14.3689 97.6178 17.2176V25.3865C97.6178 25.9171 97.7069 26.2941 97.885 26.5176C98.0929 26.741 98.4344 26.8667 98.9096 26.8946V30.5811C98.4641 30.6649 98.0632 30.7207 97.7069 30.7486C97.3505 30.7766 97.0535 30.7905 96.816 30.7905C95.7766 30.7905 94.9896 30.5532 94.4551 30.0784C93.9205 29.6036 93.6087 29.045 93.5196 28.4027L93.386 27.1459C92.3763 28.3748 91.0845 29.3243 89.5106 29.9946C87.9367 30.6649 86.3479 31 84.7443 31C83.2 31 81.8191 30.7068 80.6016 30.1203C79.384 29.5059 78.4337 28.682 77.7507 27.6486C77.0677 26.6153 76.7262 25.4563 76.7262 24.1716ZM91.5597 25.5122C91.916 25.1491 92.1981 24.786 92.406 24.423C92.6139 24.0599 92.7178 23.7387 92.7178 23.4595V20.9459C91.8863 20.6387 91.0103 20.4153 90.0897 20.2757C89.1691 20.1081 88.2633 20.0243 87.3724 20.0243C85.5906 20.0243 84.1355 20.3595 83.007 21.0297C81.9082 21.7 81.3589 22.6216 81.3589 23.7946C81.3589 24.4369 81.537 25.0513 81.8934 25.6378C82.2794 26.2243 82.814 26.6991 83.497 27.0622C84.2097 27.4252 85.0858 27.6068 86.1252 27.6068C87.1942 27.6068 88.2188 27.4113 89.1988 27.0203C90.1788 26.6293 90.9657 26.1266 91.5597 25.5122Z" fill="white"/>
<path d="M116.351 29.45C115.935 29.6455 115.416 29.855 114.792 30.0784C114.168 30.3018 113.456 30.4973 112.654 30.6649C111.882 30.8324 111.08 30.9162 110.248 30.9162C109.239 30.9162 108.303 30.7486 107.442 30.4135C106.581 30.0784 105.883 29.5477 105.348 28.8216C104.844 28.0676 104.591 27.1041 104.591 25.9311V12.2324H101.518V8.67162H104.591V1.46621H109.491V8.67162H114.569V12.2324H109.491V24.4649C109.55 25.2189 109.803 25.7775 110.248 26.1405C110.723 26.5036 111.303 26.6851 111.986 26.6851C112.669 26.6851 113.322 26.5734 113.946 26.35C114.569 26.1266 115.03 25.945 115.326 25.8054L116.351 29.45Z" fill="white"/>
<path d="M120.368 30.5811V0.837837H134.133C135.558 0.837837 136.865 1.11712 138.053 1.67567C139.241 2.23423 140.265 2.97432 141.126 3.89595C142.017 4.81757 142.7 5.8509 143.175 6.99595C143.68 8.14099 143.933 9.31396 143.933 10.5149C143.933 11.8275 143.68 13.0842 143.175 14.2851C142.671 15.486 141.943 16.5194 140.993 17.3851C140.072 18.2509 138.988 18.8793 137.741 19.2703L145.18 30.5811H139.567L132.707 20.2338H125.357V30.5811H120.368ZM125.357 16.0865H134.088C135.009 16.0865 135.826 15.8351 136.538 15.3324C137.251 14.8297 137.815 14.1595 138.231 13.3216C138.647 12.4559 138.855 11.5203 138.855 10.5149C138.855 9.48153 138.617 8.55991 138.142 7.75C137.667 6.91216 137.043 6.24189 136.271 5.73919C135.529 5.23649 134.712 4.98514 133.821 4.98514H125.357V16.0865Z" fill="white"/>
<path d="M147.111 24.1716C147.111 22.7752 147.526 21.5604 148.358 20.527C149.219 19.4658 150.392 18.6559 151.877 18.0973C153.362 17.5108 155.084 17.2176 157.044 17.2176C158.084 17.2176 159.138 17.2874 160.207 17.427C161.306 17.5667 162.271 17.7901 163.102 18.0973V16.7149C163.102 15.1788 162.612 13.9779 161.632 13.1122C160.652 12.2464 159.242 11.8135 157.401 11.8135C156.094 11.8135 154.862 12.0369 153.703 12.4838C152.545 12.9027 151.313 13.5032 150.006 14.2851L148.358 11.1851C149.902 10.2077 151.446 9.48153 152.991 9.00676C154.565 8.53198 156.213 8.29459 157.935 8.29459C161.053 8.29459 163.503 9.07658 165.285 10.6405C167.097 12.1766 168.002 14.3689 168.002 17.2176V25.3865C168.002 25.9171 168.091 26.2941 168.27 26.5176C168.477 26.741 168.819 26.8667 169.294 26.8946V30.5811C168.849 30.6649 168.448 30.7207 168.091 30.7486C167.735 30.7766 167.438 30.7905 167.2 30.7905C166.161 30.7905 165.374 30.5532 164.84 30.0784C164.305 29.6036 163.993 29.045 163.904 28.4027L163.771 27.1459C162.761 28.3748 161.469 29.3243 159.895 29.9946C158.321 30.6649 156.732 31 155.129 31C153.585 31 152.204 30.7068 150.986 30.1203C149.769 29.5059 148.818 28.682 148.135 27.6486C147.452 26.6153 147.111 25.4563 147.111 24.1716ZM161.944 25.5122C162.301 25.1491 162.583 24.786 162.791 24.423C162.998 24.0599 163.102 23.7387 163.102 23.4595V20.9459C162.271 20.6387 161.395 20.4153 160.474 20.2757C159.554 20.1081 158.648 20.0243 157.757 20.0243C155.975 20.0243 154.52 20.3595 153.392 21.0297C152.293 21.7 151.743 22.6216 151.743 23.7946C151.743 24.4369 151.922 25.0513 152.278 25.6378C152.664 26.2243 153.199 26.6991 153.882 27.0622C154.594 27.4252 155.47 27.6068 156.51 27.6068C157.579 27.6068 158.603 27.4113 159.583 27.0203C160.563 26.6293 161.35 26.1266 161.944 25.5122Z" fill="white"/>
<path d="M209.583 30.5811H204.683V18.3068C204.683 16.268 204.327 14.7739 203.614 13.8243C202.901 12.8748 201.862 12.4 200.496 12.4C199.13 12.4 197.853 12.8887 196.665 13.8662C195.507 14.8158 194.69 16.0586 194.215 17.5946V30.5811H189.315V18.3068C189.315 16.268 188.959 14.7739 188.246 13.8243C187.533 12.8748 186.509 12.4 185.172 12.4C183.806 12.4 182.529 12.8748 181.341 13.8243C180.183 14.7739 179.352 16.0167 178.847 17.5527V30.5811H173.947V8.67162H178.401V13.0703C179.322 11.5342 180.525 10.3613 182.01 9.55135C183.524 8.71351 185.247 8.29459 187.177 8.29459C189.107 8.29459 190.622 8.76937 191.72 9.71892C192.849 10.6685 193.547 11.8554 193.814 13.2797C194.824 11.6599 196.056 10.4311 197.511 9.59324C198.996 8.72748 200.689 8.29459 202.589 8.29459C203.955 8.29459 205.099 8.53198 206.019 9.00676C206.94 9.48153 207.653 10.1378 208.157 10.9757C208.662 11.7856 209.019 12.7351 209.227 13.8243C209.464 14.8856 209.583 16.0167 209.583 17.2176V30.5811Z" fill="white"/>
<path d="M17.8846 21.2168L0 30.51L8.1243e-07 11.9237L17.8846 21.2168Z" fill="#5BB281"/>
<path d="M10.7308 11.6784L28.6154 2.38525V20.9715L10.7308 11.6784Z" fill="#FF003E"/>
</svg>
